HIERARCHY
ROOT joint_Root
{
	OFFSET 0.0 0.0 0.0
	CHANNELS 6 Xposition Yposition Zposition Zrotation Xrotation Yrotation 
	JOINT Hips
	{
		OFFSET -0.726466 93.3139 -2.00062
		CHANNELS 6 Xposition Yposition Zposition Zrotation Xrotation Yrotation 
		JOINT Spine
		{
			OFFSET 15.7357 0.0 0.0
			CHANNELS 6 Xposition Yposition Zposition Zrotation Xrotation Yrotation 
			JOINT Chest
			{
				OFFSET 8.98455 -0.406207 0.0
				CHANNELS 6 Xposition Yposition Zposition Zrotation Xrotation Yrotation 
				JOINT Neck
				{
					OFFSET 16.3773 0.0 0.0
					CHANNELS 6 Xposition Yposition Zposition Zrotation Xrotation Yrotation 
					JOINT Head
					{
						OFFSET 6.45672 0.0 0.0
						CHANNELS 6 Xposition Yposition Zposition Zrotation Xrotation Yrotation 
						End Site
						{
							OFFSET 0.0 0.0 0.0
						}
					}
				}
				JOINT Shoulder_L
				{
					OFFSET 12.9942 -0.242716 4.98039
					CHANNELS 6 Xposition Yposition Zposition Zrotation Xrotation Yrotation 
					JOINT UpperArm_L
					{
						OFFSET 5.34809 0.0 0.0
						CHANNELS 6 Xposition Yposition Zposition Zrotation Xrotation Yrotation 
						JOINT LowerArm_L
						{
							OFFSET 24.3286 1.87007e-05 0.0
							CHANNELS 6 Xposition Yposition Zposition Zrotation Xrotation Yrotation 
							JOINT Hand_L
							{
								OFFSET 22.2916 0.0 0.0
								CHANNELS 6 Xposition Yposition Zposition Zrotation Xrotation Yrotation 
								End Site
								{
									OFFSET 0.0 0.0 0.0
								}
							}
						}
					}
				}
				JOINT Shoulder_R
				{
					OFFSET 12.9945 -0.242716 -4.98039
					CHANNELS 6 Xposition Yposition Zposition Zrotation Xrotation Yrotation 
					JOINT UpperArm_R
					{
						OFFSET -5.34813 0.0 0.0
						CHANNELS 6 Xposition Yposition Zposition Zrotation Xrotation Yrotation 
						JOINT LowerArm_R
						{
							OFFSET -24.3289 0.000322201 0.0
							CHANNELS 6 Xposition Yposition Zposition Zrotation Xrotation Yrotation 
							JOINT Hand_R
							{
								OFFSET -22.2915 -0.000108084 0.0
								CHANNELS 6 Xposition Yposition Zposition Zrotation Xrotation Yrotation 
								End Site
								{
									OFFSET 0.0 0.0 0.0
								}
							}
						}
					}
				}
			}
		}
		JOINT UpperLeg_L
		{
			OFFSET -2.19248 -6.46944 0.0
			CHANNELS 6 Xposition Yposition Zposition Zrotation Xrotation Yrotation 
			JOINT LowerLeg_L
			{
				OFFSET 39.0811 0.0 -1.23785e-05
				CHANNELS 6 Xposition Yposition Zposition Zrotation Xrotation Yrotation 
				JOINT Foot_L
				{
					OFFSET 40.9854 0.0 -1.26872e-05
					CHANNELS 6 Xposition Yposition Zposition Zrotation Xrotation Yrotation 
					JOINT Toes_L
					{
						OFFSET 11.7543 0.0 0.0
						CHANNELS 6 Xposition Yposition Zposition Zrotation Xrotation Yrotation 
						End Site
						{
							OFFSET 0.0 0.0 0.0
						}
					}
				}
			}
		}
		JOINT UpperLeg_R
		{
			OFFSET -2.19251 6.46944 0.0
			CHANNELS 6 Xposition Yposition Zposition Zrotation Xrotation Yrotation 
			JOINT LowerLeg_R
			{
				OFFSET -39.0811 -0.00228153 -0.0401928
				CHANNELS 6 Xposition Yposition Zposition Zrotation Xrotation Yrotation 
				JOINT Foot_R
				{
					OFFSET -40.9854 0.0 0.0
					CHANNELS 6 Xposition Yposition Zposition Zrotation Xrotation Yrotation 
					JOINT Toes_R
					{
						OFFSET -11.7543 0.0 0.0
						CHANNELS 6 Xposition Yposition Zposition Zrotation Xrotation Yrotation 
						End Site
						{
							OFFSET 0.0 0.0 0.0
						}
					}
				}
			}
		}
	}
}
MOTION
Frames:	4
Frame Time:	0.0333333
0.000000 0.000000 0.000000 0.000000 0.000000 -0.000000 -0.362424 92.349700 -1.418040 88.037100 -0.388739 4.943780 15.735700 0.000005 -0.000001 84.045600 85.143200 -83.627900 8.984550 -0.406207 -0.000000 1.899320 -1.028400 0.851657 16.377300 -0.000001 -0.000001 2.887320 -3.026700 0.927834 6.456720 -0.000001 -0.000000 6.370670 -3.739140 -0.560900 12.994200 -0.242716 4.980390 -89.781500 -0.687664 -72.370000 5.348090 -0.000007 -0.000001 -70.047700 39.936200 -12.685900 24.328600 0.000019 0.000005 1.259190 3.083220 -22.227300 22.291600 -0.000001 0.000005 5.398590 5.477880 -5.667610 12.994500 -0.242716 -4.980390 88.195400 6.015110 -73.266300 -5.348130 -0.000001 -0.000004 -65.576200 38.549900 -16.803700 -24.328900 0.000322 -0.000009 2.936980 8.951340 -18.254700 -22.291500 -0.000108 -0.000004 6.396580 5.343660 -1.176040 -2.192480 -6.469440 -0.000000 -175.438000 -7.273990 -2.403380 39.081100 -0.000007 -0.000012 -0.102119 0.240202 23.032300 40.985400 -0.000006 -0.000013 0.286257 4.901000 -65.922300 11.754300 -0.000000 0.000003 -0.000038 -0.000441 -16.594700 -2.192510 6.469440 -0.000001 179.516000 14.876600 -179.723000 -39.081100 -0.002282 -0.040193 -0.044982 0.136113 19.538900 -40.985400 0.000008 0.000006 3.251200 8.251440 -65.308700 -11.754300 -0.000006 -0.000006 -0.008725 -0.093851 -20.395500
0.000000 0.000000 0.000000 0.000000 0.000000 -0.000000 -0.323471 92.352700 -1.443060 88.067700 -0.395979 4.967030 15.735700 0.000005 -0.000001 84.118900 85.134600 -83.753800 8.984550 -0.406207 -0.000000 1.917110 -1.015060 0.746433 16.377300 -0.000001 -0.000001 2.833910 -3.003450 0.900958 6.456720 -0.000001 -0.000000 6.465660 -3.699690 -0.366200 12.994200 -0.242716 4.980390 -89.742100 -0.810476 -72.347900 5.348090 -0.000007 -0.000001 -70.170700 39.652800 -12.684600 24.328600 0.000019 0.000005 1.253590 3.068270 -22.235400 22.291600 -0.000001 0.000005 5.380100 5.476360 -5.609930 12.994500 -0.242716 -4.980390 88.028800 6.497330 -73.082700 -5.348130 -0.000001 -0.000004 -64.928000 35.330800 -17.192400 -24.328900 0.000322 -0.000009 3.489170 9.166510 -20.950500 -22.291500 -0.000108 -0.000004 1.958320 5.314770 -0.337725 -2.192480 -6.469440 -0.000000 -175.499000 -7.320460 -2.384950 39.081100 -0.000007 -0.000012 -0.100098 0.235721 23.008400 40.985400 -0.000006 -0.000013 0.324427 4.911130 -65.896400 11.754300 -0.000000 0.000003 -0.000043 -0.000494 -16.596800 -2.192510 6.469440 -0.000001 179.471000 14.815400 -179.727000 -39.081100 -0.002282 -0.040193 -0.044588 0.134859 19.558200 -40.985400 0.000008 0.000006 3.212940 8.176200 -65.292000 -11.754300 -0.000006 -0.000006 -0.008898 -0.095206 -20.450900
0.000000 0.000000 0.000000 0.000000 0.000000 -0.000000 -0.258415 92.352200 -1.474980 88.100300 -0.504914 5.017160 15.735700 0.000005 -0.000001 83.443000 85.127600 -83.124600 8.984550 -0.406207 -0.000000 1.918690 -1.128320 0.655018 16.377300 -0.000001 -0.000001 2.963170 -2.899460 0.797069 6.456720 -0.000001 -0.000000 6.566910 -3.537130 -0.140580 12.994200 -0.242716 4.980390 -89.675400 -1.015580 -72.275900 5.348090 -0.000007 -0.000001 -70.561900 39.285100 -12.441500 24.328600 0.000019 0.000005 1.286990 3.160960 -22.166600 22.291600 -0.000001 0.000005 5.475410 5.477820 -5.665340 12.994500 -0.242716 -4.980390 87.839200 7.041570 -72.892800 -5.348130 -0.000001 -0.000004 -63.348300 30.842100 -18.689500 -24.328900 0.000322 -0.000009 3.685550 7.895970 -25.134300 -22.291500 -0.000108 -0.000004 -0.832853 5.302000 0.016397 -2.192480 -6.469440 -0.000000 -175.565000 -7.435460 -2.343900 39.081100 -0.000007 -0.000012 -0.098224 0.231310 23.008300 40.985400 -0.000006 -0.000013 0.366908 4.885010 -65.883800 11.754300 -0.000000 0.000003 -0.000038 -0.000442 -16.594800 -2.192510 6.469440 -0.000001 179.389000 14.649800 -179.735000 -39.081100 -0.002282 -0.040193 -0.047476 0.142592 19.608300 -40.985400 0.000008 0.000006 3.106270 8.166400 -65.263600 -11.754300 -0.000006 -0.000006 -0.008922 -0.095402 -20.458900
0.000000 0.000000 0.000000 0.000000 0.000000 -0.000000 -0.155505 92.345800 -1.526400 88.050200 -0.861844 5.086560 15.735700 0.000005 -0.000001 83.155500 85.167700 -82.840400 8.984550 -0.406207 -0.000000 1.833410 -1.167390 0.648394 16.377300 -0.000001 -0.000001 3.258970 -2.833870 0.790245 6.456720 -0.000001 -0.000000 6.892680 -3.340060 -0.159168 12.994200 -0.242716 4.980390 -89.635100 -1.142380 -72.282100 5.348090 -0.000007 -0.000001 -70.898200 39.122700 -12.062300 24.328600 0.000019 0.000005 1.256900 3.100520 -22.079300 22.291600 -0.000001 0.000005 5.149190 5.474080 -5.523710 12.994500 -0.242716 -4.980390 87.760100 7.192350 -72.651000 -5.348130 -0.000001 -0.000004 -61.548500 25.552600 -21.222200 -24.328900 0.000322 -0.000009 3.939800 6.554210 -31.114800 -22.291500 -0.000108 -0.000004 0.227611 5.300370 0.059804 -2.192480 -6.469440 -0.000000 -175.554000 -7.723890 -2.306790 39.081100 -0.000007 -0.000012 -0.097873 0.229324 23.112200 40.985400 -0.000006 -0.000013 0.427246 4.796970 -65.937100 11.754300 -0.000000 0.000003 -0.000039 -0.000452 -16.595200 -2.192510 6.469440 -0.000001 179.369000 14.403000 -179.751000 -39.081100 -0.002282 -0.040193 -0.049501 0.147947 19.648700 -40.985400 0.000008 0.000006 2.948180 8.292900 -65.186300 -11.754300 -0.000006 -0.000006 -0.009058 -0.096457 -20.502000
